<svg width="18" height="18" viewBox="0 0 18 18" fill="none" xmlns="http://www.w3.org/2000/svg">
<path d="M17.3029 7.97274L13.7873 11.0063L14.8584 15.5431C14.9174 15.7893 14.9022 16.0476 14.8146 16.2852C14.727 16.5229 14.5709 16.7292 14.3661 16.8782C14.1613 17.0272 13.9169 17.1121 13.6639 17.1222C13.4108 17.1324 13.1604 17.0673 12.9443 16.9352L8.99898 14.5071L5.05132 16.9352C4.83525 17.0666 4.58515 17.131 4.33252 17.1205C4.07989 17.11 3.83603 17.0249 3.63163 16.8761C3.42724 16.7272 3.27146 16.5212 3.1839 16.284C3.09634 16.0468 3.08093 15.789 3.1396 15.5431L4.2146 11.0063L0.698975 7.97274C0.507801 7.80752 0.369541 7.58963 0.301461 7.34629C0.233381 7.10296 0.238498 6.84496 0.316174 6.60452C0.39385 6.36407 0.540641 6.15184 0.738216 5.99432C0.935791 5.83681 1.17539 5.74099 1.4271 5.71884L6.03648 5.34696L7.8146 1.04384C7.91085 0.809319 8.07466 0.608718 8.2852 0.467538C8.49575 0.326358 8.74352 0.250977 8.99702 0.250977C9.25052 0.250977 9.49829 0.326358 9.70884 0.467538C9.91939 0.608718 10.0832 0.809319 10.1794 1.04384L11.9568 5.34696L16.5662 5.71884C16.8184 5.74017 17.0587 5.83545 17.257 5.99275C17.4553 6.15005 17.6027 6.36236 17.6809 6.6031C17.759 6.84383 17.7644 7.10228 17.6963 7.34606C17.6283 7.58984 17.4898 7.80811 17.2982 7.97352L17.3029 7.97274Z" fill="#D9B043"/>
</svg>
